# xmcd
#
# Track frame offsets:
# 150
# 28867
# 42562
# 57370
# 75122
# 95650
# 106987
# 129040
# 135422
# 160732
# 169462
# 182322
# 198910
# 207105
# 224552
# 235032
# 257500
#
# Disc length: 3587 seconds
#
#
# Revision: 3
# Processed by: cddbd v1.5.1PL0 Copyright (c) Steve Scherf et al.
# Submitted via: FreeRIP 2.40 
#
DISCID=dd0e0111
DTITLE=George Winston - Linus and Lucy - The Music of Vince Guaraldi
DYEAR=1996
DGENRE=Jazz
TTITLE0=Cast Your Fate to the wind
TTITLE1=Skating
TTITLE2=Linus and Lucy
TTITLE3=The Great Pumpkin Waltz
TTITLE4=Monterey
TTITLE5=A Charlie Brown Thanksgiving
TTITLE6=Treat Street
TTITLE7=Eight Five Five
TTITLE8=The Masked Marvel
TTITLE9=Charlie Brown and His All-Stars
TTITLE10=You're in Love, Charlie Brown
TTITLE11=Peppermint Patty
TTITLE12=Bon Voyage
TTITLE13=Yourn Man's Fancy
TTITLE14=Remembrance
TTITLE15=Theme to Grace/Lament
TTITLE16=The Red Baron
EXTD=
EXTT0=
EXTT1=
EXTT2=
EXTT3=
EXTT4=
EXTT5=
EXTT6=
EXTT7=
EXTT8=
EXTT9=
EXTT10=
EXTT11=
EXTT12=
EXTT13=
EXTT14=
EXTT15=
EXTT16=
PLAYORDER=
